<?xml version="1.0" encoding="UTF-8" standalone="no"?>
<svg
   viewBox="0 0 690 1000"
   version="1.1"
   id="svg1"
   width="690"
   height="1000"
   xmlns="http://www.w3.org/2000/svg"
   xmlns:svg="http://www.w3.org/2000/svg">
  <defs
     id="defs1" />
  <circle
     style="fill:#182b34;fill-opacity:1;stroke:none;stroke-width:39.7052"
     id="path3"
     cx="350.47467"
     cy="334.01898"
     r="312.5" />
  <path
     d="m 345,0 c 188.7,0 343,152.4 342.9,336.2 -0.1,57.2 -15.1,111.4 -41,158.2 L 364.4,992.1 c 0,0 -10.6,7.9 -18.4,7.9 -7.8,0 -15.3,-1.3 -19.1,-7.9 L 44.5,494.6 C 17.6,446.1 3.4,391.4 3.4,336.2 3.4,152.4 156.3,0 345,0 Z m 1.4,47.9 c -0.2,0 -0.6,0.1 -0.8,0.1 C 282.4,48 223.7,67.4 175.1,100.5 96.3,154.2 44.5,244.4 44.5,346.2 44.5,510.9 180,644.6 346.4,644.6 512.8,644.6 648.3,510.9 648.3,346.2 648.3,181.5 512.8,47.9 346.4,47.9 Z m 0,37.7 c 146.2,0 264.2,116.6 264.2,260.6 0,144 -118,260.6 -264.2,260.6 -146.3,0 -264.2,-116.6 -264.2,-260.6 0,-89.1 45.2,-167.5 114.2,-214.6 42.6,-29 94.2,-46 150,-46 z m -58.5,97.1 -63.8,327.1 h 232.5 l 12,-63.8 H 321 l 51.3,-263.3 z"
     fill="#38dc06"
     id="path1" />
</svg>
