<svg xmlns="http://www.w3.org/2000/svg" viewBox="0 0 690 1000">
  <path d="M345 0C533.7 0 688 152.4 687.9 336.2 687.8 393.4 672.8 447.6 646.9 494.4L364.4 992.1S353.8 1000 346 1000C338.2 1000 330.7 998.7 326.9 992.1L44.5 494.6C17.6 446.1 3.4 391.4 3.4 336.2 3.4 152.4 156.3 0 345 0ZM346.4 47.9C346.2 47.9 345.8 48 345.6 48 282.4 48 223.7 67.4 175.1 100.5 96.3 154.2 44.5 244.4 44.5 346.2 44.5 510.9 180 644.6 346.4 644.6 512.8 644.6 648.3 510.9 648.3 346.2 648.3 181.5 512.8 47.9 346.4 47.9ZM346.4 85.6C492.6 85.6 610.6 202.2 610.6 346.2 610.6 490.2 492.6 606.8 346.4 606.8 200.1 606.8 82.2 490.2 82.2 346.2 82.2 257.1 127.4 178.7 196.4 131.6 239 102.6 290.6 85.6 346.4 85.6ZM287.9 182.7L224.1 509.8H456.6L468.6 446H321L372.3 182.7H287.9Z" fill="black"/>
</svg>
